<svg width="90" height="41" viewBox="0 0 90 41" fill="none" xmlns="http://www.w3.org/2000/svg">
<path d="M15.468 5.6975C15.468 4.81492 15.3844 4.0928 15.3008 3.69163C15.1336 2.72881 14.6319 1.84622 13.7958 1.12411C12.9597 0.401994 12.04 0.0810547 10.8694 0.0810547C9.69886 0.0810547 8.61192 0.482229 7.77581 1.28458C6.85609 0.482229 5.85276 0.0810547 4.68221 0.0810547C3.59527 0.0810547 2.50833 0.482229 1.75583 1.12411C1.00333 1.76599 0.418054 2.56834 0.167222 3.69163C0.0836107 4.17304 0 4.81492 0 5.6975V12.5977C0 12.9989 0.334443 13.1593 0.585276 13.1593C1.00333 13.1593 1.17055 12.8384 1.17055 12.5977V5.4568C1.17055 4.17304 1.42138 3.12998 2.00666 2.32763C2.59194 1.44505 3.51166 1.04387 4.76582 1.04387C5.68554 1.04387 6.43804 1.36481 7.10692 2.00669C6.52165 2.96951 6.27081 4.01257 6.27081 5.4568V12.5175C6.27081 12.8384 6.52165 13.0791 6.85609 13.0791C7.27414 13.0791 7.44137 12.7582 7.44137 12.5175V5.37656C7.44137 4.33351 7.60859 3.53116 7.85942 2.96951C8.11025 3.61139 8.27747 4.57421 8.27747 5.6975V12.5977C8.27747 12.9186 8.52831 13.1593 8.86275 13.1593C9.2808 13.1593 9.44803 12.8384 9.44803 12.5977V5.21609C9.44803 3.77186 9.19719 2.72881 8.61192 1.92646C9.19719 1.36481 9.94969 1.04387 10.8694 1.04387C11.7055 1.04387 12.458 1.28458 13.0433 1.76599C13.6286 2.16716 14.0466 2.80904 14.2975 3.61139C14.4647 4.0928 14.4647 4.65445 14.4647 5.4568V12.5977C14.4647 12.9186 14.7155 13.1593 15.05 13.1593C15.468 13.1593 15.6352 12.8384 15.6352 12.5977L15.5516 12.1965V5.6975H15.468Z" fill="black"/>
<path d="M29.0134 2.0858C27.6756 0.802037 26.0034 0.160156 24.0803 0.160156C22.1573 0.160156 20.4851 0.802037 19.1473 2.0858C17.8095 3.36955 17.1406 4.97425 17.1406 6.81966C17.1406 8.66506 17.8095 10.2698 19.2309 11.5535C20.6523 12.8373 22.3245 13.4792 24.2475 13.4792C25.6689 13.4792 27.0067 13.078 28.0936 12.3559V12.5163C28.0936 13.078 28.4281 13.2385 28.6789 13.2385C28.9298 13.2385 29.2642 12.9977 29.2642 12.5163V11.4733C30.602 10.1093 31.2709 8.58482 31.2709 6.81966C31.1036 4.89402 30.3511 3.28932 29.0134 2.0858ZM27.9264 6.89989V11.0721C26.7559 12.0349 25.5017 12.5163 24.0803 12.5163C22.4917 12.5163 21.0703 11.9547 19.9834 10.8314C18.8128 9.78835 18.3112 8.50459 18.3112 6.89989C18.3112 5.29519 18.8965 4.01143 20.067 2.88815C21.2376 1.76486 22.5753 1.20321 24.2475 1.20321C25.8362 1.20321 27.2575 1.76486 28.3445 2.88815C29.4314 4.01143 30.1003 5.29519 30.1003 6.81966C30.1003 7.94294 29.7659 8.90576 29.1806 9.78835V6.89989C29.0134 6.09754 27.9264 6.09754 27.9264 6.89989Z" fill="black"/>
<path d="M38.6272 13.479C40.2158 13.479 41.7208 12.9976 43.0586 11.9545C43.393 11.7138 43.6439 11.5534 43.8111 11.3127H43.8947V11.2324C43.9783 11.1522 43.9783 11.0719 43.9783 10.9115C43.9783 10.6708 43.8111 10.4301 43.4766 10.4301H43.1422L43.0586 10.5905V10.751C42.4733 11.2324 41.8044 11.7138 41.1355 12.0348C40.383 12.3557 39.5469 12.5964 38.7944 12.5964C37.1222 12.5964 35.7844 12.0348 34.6975 10.9115C33.5269 9.78819 32.9417 8.50443 32.9417 6.89973C32.9417 5.37527 33.5269 4.01127 34.6975 2.96822C35.7844 1.84493 37.1222 1.36352 38.7944 1.36352C40.383 1.36352 41.8044 1.92517 42.975 3.04846L43.2258 3.20892H43.5602L43.6439 3.12869C43.8111 3.04846 43.8947 2.88799 43.8947 2.72752V2.56705L43.8111 2.48681C43.8111 2.48681 43.8111 2.40658 43.7275 2.40658C43.6439 2.32634 43.6439 2.24611 43.5602 2.24611C42.3061 0.962349 40.6339 0.240234 38.6272 0.240234C36.7042 0.240234 35.0319 0.882112 33.6942 2.16587C32.3564 3.44963 31.6875 5.05433 31.6875 6.89973C31.6875 8.6649 32.3564 10.2696 33.6942 11.6336C35.1155 12.8371 36.7878 13.479 38.6272 13.479Z" fill="black"/>
<path d="M55.8532 2.0858C54.5154 0.802037 52.8432 0.160156 50.9202 0.160156C48.9971 0.160156 47.3249 0.802037 45.9871 2.0858C44.6494 3.36955 43.9805 4.97425 43.9805 6.81966C43.9805 8.66506 44.6494 10.2698 45.9871 11.5535C47.4085 12.8373 49.0807 13.4792 51.0038 13.4792C52.4252 13.4792 53.7629 13.078 54.8499 12.3559V12.5163C54.8499 13.078 55.1843 13.2385 55.4352 13.2385C55.686 13.2385 56.0204 12.9977 56.0204 12.5163V11.4733C57.3582 10.1093 58.0271 8.58482 58.0271 6.81966C57.9435 4.81378 57.2746 3.28932 55.8532 2.0858ZM54.7663 6.89989V11.0721C53.5957 12.0349 52.3416 12.5163 50.9202 12.5163C49.3316 12.5163 47.9102 11.9547 46.7396 10.8314C45.5691 9.78835 45.0674 8.50459 45.0674 6.89989C45.0674 5.29519 45.6527 4.01143 46.8232 2.88815C47.9938 1.76486 49.3316 1.20321 51.0038 1.20321C52.5924 1.20321 54.0138 1.76486 55.1007 2.88815C56.2713 4.01143 56.8565 5.29519 56.8565 6.81966C56.8565 7.94294 56.5221 8.986 55.9368 9.86859V6.98013C55.8532 6.09754 54.7663 6.09754 54.7663 6.89989Z" fill="black"/>
<path d="M59.6986 13.2381C60.1166 13.2381 60.2838 12.9172 60.2838 12.6765V7.46122C60.2838 6.09723 60.3674 5.29488 60.5347 4.73323C60.7855 3.85065 61.2872 3.12853 61.9561 2.56689C62.6249 2.00525 63.3774 1.68431 64.2135 1.4436C64.6316 1.4436 64.7988 1.12266 64.7988 0.881958C64.7988 0.480783 64.548 0.400547 64.3808 0.320312H64.2972H64.2135C63.7955 0.320312 63.2938 0.480781 62.7085 0.801721C61.7052 1.28313 60.8691 1.92501 60.2838 2.80759C60.2838 2.32618 60.2838 1.68431 60.2838 0.962191C60.2838 0.159842 59.1133 0.159842 59.1133 0.962191V12.6765C59.1133 12.9974 59.3641 13.2381 59.6986 13.2381Z" fill="black"/>
<path d="M76.9196 2.0858C75.5818 0.802037 73.9096 0.160156 71.9866 0.160156C70.0635 0.160156 68.3913 0.802037 67.0535 2.0858C65.7158 3.36955 65.0469 4.97425 65.0469 6.81966C65.0469 8.66506 65.7158 10.2698 67.0535 11.5535C68.4749 12.8373 70.1471 13.4792 72.0702 13.4792C73.9932 13.4792 75.6655 12.8373 77.0032 11.4733C78.341 10.1093 79.0099 8.50459 79.0099 6.65919C79.0099 4.89402 78.341 3.28932 76.9196 2.0858ZM71.9866 1.20321C73.5752 1.20321 74.9966 1.76486 76.0835 2.88815C77.2541 4.01143 77.8393 5.29519 77.8393 6.81966C77.8393 8.42435 77.2541 9.78835 75.9999 10.8314C74.913 11.9547 73.5752 12.4361 71.903 12.4361C70.3144 12.4361 68.893 11.8745 67.806 10.7512C66.6355 9.62788 66.0502 8.34412 66.0502 6.81966C66.0502 5.21496 66.6355 3.9312 67.806 2.80791C68.893 1.68462 70.3144 1.20321 71.9866 1.20321Z" fill="black"/>
<path d="M89.8824 3.53034C89.7151 2.56752 89.2135 1.76517 88.2938 1.04306C87.4577 0.401177 86.4543 0 85.3674 0C84.5313 0 83.7788 0.160471 83.1099 0.561645C82.6082 0.882585 82.1066 1.20353 81.7721 1.68494V0.882586C81.7721 0.0802368 80.6016 0.0802368 80.6016 0.882586V12.5969C80.6016 12.9981 80.936 13.1585 81.1868 13.1585C81.6049 13.1585 81.7721 12.8376 81.7721 12.5969V5.93739C81.7721 5.21527 81.7721 4.57339 81.8557 4.25245C82.0229 3.28964 82.3574 2.56752 82.9427 2.00587C83.6116 1.44423 84.4477 1.12329 85.2838 1.12329C85.9527 1.12329 86.6215 1.28376 87.1232 1.6047C87.8757 2.00587 88.3774 2.64776 88.5446 3.45011C88.7118 3.93151 88.7118 4.8141 88.7118 5.93739V12.5969C88.7118 12.9178 88.9626 13.1585 89.2971 13.1585C89.4643 13.1585 89.6315 13.0783 89.7151 12.9981H89.966V5.37574C90.0496 4.65363 89.966 4.01175 89.8824 3.53034Z" fill="black"/>
<path d="M26.1689 28.6445C25.5836 28.6445 25.5 28.9655 25.5 29.2062C25.5 29.6073 25.8345 29.7678 26.0853 29.7678C26.7542 29.7678 27.2558 29.9283 27.8411 30.2492C28.9281 30.8109 29.5133 31.7737 29.5133 32.9772C29.5133 33.8598 29.1789 34.5819 28.51 35.2238C27.8411 35.8657 27.0886 36.1866 26.1689 36.1866C24.8311 36.1866 23.9114 35.625 23.1589 34.5017C22.9081 34.1807 22.7409 33.6993 22.7409 33.1377C22.7409 32.7365 22.49 32.4958 22.1556 32.4958C21.7375 32.4958 21.5703 32.8167 21.5703 33.0575C21.5703 34.1807 22.072 35.2238 22.9917 35.9459C23.8278 36.7483 24.9147 37.1494 26.0853 37.1494C27.3395 37.1494 28.4264 36.7483 29.2625 35.8657C30.0986 35.0633 30.6003 34.0203 30.6003 32.8167C30.6003 31.6132 30.1822 30.6504 29.3461 29.8481C28.51 29.1259 27.4231 28.6445 26.1689 28.6445Z" fill="black"/>
<path d="M25.9203 25.2745C27.0073 25.2745 27.7598 25.6757 28.2614 26.5583C28.345 26.7187 28.5123 27.0397 28.5959 27.3606C28.5959 27.7618 28.8467 28.0025 29.1811 28.0025C29.5156 28.0025 29.7664 27.7618 29.7664 27.4408C29.7664 26.478 29.2648 25.6757 28.4286 25.1943C27.6761 24.5524 26.84 24.2314 25.8367 24.2314C24.8334 24.2314 23.9137 24.5524 23.1612 25.2745C22.4923 26.0768 22.0742 26.8792 22.0742 27.842C22.0742 28.8048 22.4087 29.6874 23.1612 30.4095C23.83 31.1316 24.7498 31.5328 25.7531 31.5328C26.1712 31.5328 26.422 31.2921 26.422 30.9712C26.422 30.6502 26.1711 30.4095 25.8367 30.4095C25.0842 30.4095 24.4989 30.1688 23.9973 29.6874C23.4956 29.206 23.2448 28.5641 23.2448 27.842C23.2448 27.1199 23.4956 26.478 23.9973 25.9966C24.6662 25.5152 25.2514 25.2745 25.9203 25.2745Z" fill="black"/>
<path d="M41.1136 29.1869C41.1136 28.3043 41.03 27.6624 40.9464 27.2613C40.6955 26.2182 40.1939 25.4159 39.4414 24.8542C38.6053 24.1321 37.7691 23.8112 36.6822 23.8112C35.9297 23.8112 35.1772 23.9716 34.5083 24.3728C33.923 24.6135 33.505 25.0147 33.1706 25.4159V20.6018C33.1706 19.7994 32 19.7994 32 20.6018V35.9266C32 36.3278 32.3344 36.4883 32.5853 36.4883C33.0033 36.4883 33.1706 36.1673 33.1706 35.9266V29.5078C33.1706 29.0264 33.1706 28.6253 33.2542 28.3043C33.2542 28.0636 33.2542 27.9031 33.2542 27.8229C33.4214 26.9403 33.7558 26.2182 34.3411 25.6566C35.01 25.0949 35.6789 24.8542 36.6822 24.8542C37.3511 24.8542 38.02 25.0147 38.5216 25.3356C39.2741 25.817 39.6922 26.3787 39.8594 27.1008C40.0266 27.5822 40.0266 28.3845 40.0266 29.5078V35.9266C40.0266 36.2476 40.2775 36.4883 40.6119 36.4883C41.03 36.4883 41.1972 36.1673 41.1972 35.9266L41.1136 35.5255V29.1869Z" fill="black"/>
<path d="M53.593 26.076C52.2552 24.7923 50.6666 24.1504 48.8272 24.1504C46.9877 24.1504 45.3155 24.7923 44.0613 26.076C42.7236 27.3598 42.0547 28.8843 42.0547 30.6494C42.0547 32.4146 42.7236 34.0193 44.0613 35.2228C45.3991 36.5066 46.9877 37.1485 48.9108 37.1485C50.8338 37.1485 52.4224 36.5066 53.6766 35.2228C55.0144 33.9391 55.6833 32.4146 55.6833 30.5692C55.6833 28.7238 55.0144 27.2796 53.593 26.076ZM44.8138 34.5007C43.7269 33.4576 43.1416 32.1739 43.1416 30.6494C43.1416 29.125 43.7269 27.8412 44.8138 26.7179C45.9008 25.6749 47.2386 25.1132 48.9108 25.1132C50.4158 25.1132 51.8372 25.6749 52.9241 26.7179C54.011 27.761 54.5963 29.0447 54.5963 30.5692C54.5963 32.0936 54.011 33.4576 52.8405 34.5007C51.7535 35.5438 50.4158 36.1054 48.8272 36.1054C47.3222 36.1054 45.9008 35.5438 44.8138 34.5007Z" fill="black"/>
<path d="M63.5459 24.1504C61.6229 24.1504 60.0343 24.7923 58.7801 26.076C57.5259 27.3598 56.7734 28.8843 56.7734 30.6494C56.7734 32.4146 57.4423 33.9391 58.6965 35.2228V40.4381C58.6965 40.759 58.9473 40.9997 59.2818 40.9997C59.6998 40.9997 59.867 40.6788 59.867 40.4381V36.1856C60.954 36.9077 62.2081 37.2287 63.5459 37.2287C65.469 37.2287 67.1412 36.5868 68.3953 35.3833C69.7331 34.0995 70.4856 32.6553 70.4856 30.8099C70.4856 28.9645 69.7331 27.44 68.3953 26.1563C67.0576 24.7923 65.469 24.1504 63.5459 24.1504ZM59.2818 30.0878C59.0309 30.0878 58.6965 30.3285 58.6965 30.7297V33.4576C58.1948 32.6553 57.944 31.6925 57.944 30.6494C57.944 29.2052 58.5293 27.8412 59.6162 26.7981C60.7868 25.6749 62.1245 25.1934 63.7131 25.1934C65.3017 25.1934 66.6395 25.7551 67.8101 26.7981C68.897 27.8412 69.4823 29.125 69.4823 30.7297C69.4823 32.2541 68.897 33.5379 67.7265 34.5809C66.6395 35.624 65.3017 36.1856 63.7131 36.1856C62.2918 36.1856 61.0376 35.7042 59.9507 34.7414V30.7297C59.867 30.168 59.5326 30.0878 59.2818 30.0878Z" fill="black"/>
</svg>
