<svg width="58" height="58" viewBox="0 0 58 58" fill="none" xmlns="http://www.w3.org/2000/svg">
<rect width="58" height="58" rx="15" fill="white"/>
<path d="M44.8327 25.8333V36.9166C44.8327 38.1764 44.3322 39.3845 43.4414 40.2753C42.5506 41.1661 41.3425 41.6666 40.0827 41.6666H17.916C16.6562 41.6666 15.4481 41.1661 14.5573 40.2753C13.6665 39.3845 13.166 38.1764 13.166 36.9166V25.8333H44.8327ZM38.4993 32.1666H33.7493C33.3294 32.1666 32.9267 32.3334 32.6298 32.6303C32.3328 32.9273 32.166 33.33 32.166 33.7499C32.166 34.1698 32.3328 34.5726 32.6298 34.8695C32.9267 35.1664 33.3294 35.3333 33.7493 35.3333H38.4993C38.9193 35.3333 39.322 35.1664 39.6189 34.8695C39.9159 34.5726 40.0827 34.1698 40.0827 33.7499C40.0827 33.33 39.9159 32.9273 39.6189 32.6303C39.322 32.3334 38.9193 32.1666 38.4993 32.1666ZM40.0827 16.3333C41.3425 16.3333 42.5506 16.8337 43.4414 17.7245C44.3322 18.6153 44.8327 19.8235 44.8327 21.0833V22.6666H13.166V21.0833C13.166 19.8235 13.6665 18.6153 14.5573 17.7245C15.4481 16.8337 16.6562 16.3333 17.916 16.3333H40.0827Z" fill="black"/>
</svg>
