<svg width="58" height="58" viewBox="0 0 58 58" fill="none" xmlns="http://www.w3.org/2000/svg">
<rect width="58" height="58" rx="15" fill="#0097FF" fill-opacity="0.29"/>
<path d="M16.3327 16.3333C15.4928 16.3333 14.6874 16.6669 14.0935 17.2607C13.4996 17.8546 13.166 18.6601 13.166 19.4999V25.8333C14.0059 25.8333 14.8113 26.1669 15.4052 26.7607C15.9991 27.3546 16.3327 28.1601 16.3327 28.9999C16.3327 29.8398 15.9991 30.6452 15.4052 31.2391C14.8113 31.833 14.0059 32.1666 13.166 32.1666V38.4999C13.166 39.3398 13.4996 40.1452 14.0935 40.7391C14.6874 41.333 15.4928 41.6666 16.3327 41.6666H41.666C42.5059 41.6666 43.3113 41.333 43.9052 40.7391C44.4991 40.1452 44.8327 39.3398 44.8327 38.4999V32.1666C43.9928 32.1666 43.1874 31.833 42.5935 31.2391C41.9996 30.6452 41.666 29.8398 41.666 28.9999C41.666 28.1601 41.9996 27.3546 42.5935 26.7607C43.1874 26.1669 43.9928 25.8333 44.8327 25.8333V19.4999C44.8327 18.6601 44.4991 17.8546 43.9052 17.2607C43.3113 16.6669 42.5059 16.3333 41.666 16.3333H16.3327ZM34.541 21.0833L36.916 23.4583L23.4577 36.9166L21.0827 34.5416L34.541 21.0833ZM23.9485 21.1466C25.5002 21.1466 26.751 22.3974 26.751 23.9491C26.751 24.6924 26.4558 25.4052 25.9302 25.9308C25.4046 26.4563 24.6918 26.7516 23.9485 26.7516C22.3968 26.7516 21.146 25.5008 21.146 23.9491C21.146 23.2058 21.4413 22.493 21.9668 21.9674C22.4924 21.4418 23.2052 21.1466 23.9485 21.1466ZM34.0502 31.2483C35.6018 31.2483 36.8527 32.4991 36.8527 34.0508C36.8527 34.794 36.5574 35.5068 36.0318 36.0324C35.5063 36.558 34.7934 36.8533 34.0502 36.8533C32.4985 36.8533 31.2477 35.6024 31.2477 34.0508C31.2477 33.3075 31.5429 32.5947 32.0685 32.0691C32.5941 31.5435 33.3069 31.2483 34.0502 31.2483Z" fill="#0097FF"/>
</svg>
