<svg width="50.000000" height="50.000000" viewBox="0 0 50 50" fill="none" xmlns="http://www.w3.org/2000/svg" xmlns:xlink="http://www.w3.org/1999/xlink">
	<desc>
			Created with Pixso.
	</desc>
	<defs/>
	<rect id="СТРЕЛКА ВПРАВО" rx="-0.500000" width="49.000004" height="49.000004" transform="translate(0.500000 0.500000)" fill="#FFFFFF" fill-opacity="0"/>
	<rect id="Rectangle 26" x="50.000000" y="50.000000" width="50.000000" height="50.000000" transform="rotate(-180 50.000000 50.000000)" fill="#333333" fill-opacity="0.390000"/>
	<path id="Vector" d="M15.05 25.96L32.38 25.96L28.66 29.34C28.25 29.72 28.25 30.33 28.66 30.71C29.07 31.09 29.74 31.09 30.16 30.71L35.68 25.68L35.68 25.68C36.1 25.3 36.1 24.69 35.68 24.31L35.68 24.31L30.16 19.28C29.74 18.9 29.07 18.9 28.66 19.28C28.25 19.66 28.25 20.27 28.66 20.65L32.38 24.03L15.05 24.03C14.47 24.03 14 24.46 14 25C14 25.53 14.47 25.96 15.05 25.96Z" fill="#FFFFFF" fill-opacity="1.000000" fill-rule="evenodd"/>
</svg>
